<?xml version="1.0" standalone="no"?>
<!DOCTYPE svg PUBLIC "-//W3C//DTD SVG 20010904//EN"
 "http://www.w3.org/TR/2001/REC-SVG-20010904/DTD/svg10.dtd">
<svg version="1.0" xmlns="http://www.w3.org/2000/svg"
 width="146.000000pt" height="145.000000pt" viewBox="0 0 146.000000 145.000000"
 preserveAspectRatio="xMidYMid meet">
<metadata>
Created by potrace 1.10, written by Peter Selinger 2001-2011
</metadata>
<g transform="translate(0.000000,145.000000) scale(0.100000,-0.100000)"
fill="#000000" stroke="none">
<path d="M703 1340 c-26 -15 -49 -52 -109 -172 -42 -84 -78 -155 -80 -157 -2
-2 -75 -15 -161 -28 -87 -13 -171 -28 -186 -35 -32 -12 -53 -41 -67 -87 -16
-58 2 -89 135 -221 81 -79 124 -129 121 -139 -3 -9 -17 -86 -32 -172 l-27
-156 19 -34 c25 -43 78 -79 116 -79 26 0 86 28 291 138 37 20 52 23 65 15 81
-50 295 -153 319 -153 39 0 92 36 117 79 l19 34 -27 156 c-15 86 -29 163 -32
172 -3 10 41 61 126 145 l130 129 0 50 c0 60 -25 107 -66 123 -16 7 -100 22
-187 35 -86 13 -159 26 -161 28 -2 2 -38 73 -80 157 -83 165 -107 192 -176
192 -19 0 -50 -9 -67 -20z m108 -35 c23 -12 45 -46 98 -153 38 -75 79 -147 90
-159 25 -26 23 -26 205 -53 77 -11 147 -26 155 -32 31 -23 41 -42 41 -76 0
-31 -14 -48 -119 -156 -71 -73 -122 -133 -127 -150 -4 -17 4 -91 19 -183 27
-160 26 -183 -9 -215 -43 -38 -63 -33 -217 46 -92 48 -157 76 -177 76 -20 0
-86 -28 -178 -76 -156 -80 -174 -84 -219 -42 -33 30 -35 58 -13 168 31 162 34
212 17 246 -8 16 -65 78 -126 138 -117 114 -125 129 -101 191 13 34 40 43 213
70 124 18 152 26 173 46 15 13 57 86 95 161 83 165 110 188 180 153z"/>
</g>
</svg>
